# xmcd
#
# Track frame offsets:
#       150
#       14915
#       31802
#       46658
#       62698
#       74309
#       91222
#       104587
#       124121
#       154236
#       170701
#       183691
#       213545
#       228777
#       244476
#       275379
#       288525
#       312626
#
# Disc length: 4436 seconds
#
# Revision: 1
# Processed by: cddbd v1.4PL0 Copyright (c) Steve Scherf et al.
# Submitted via: MusiCat 1.1
#
DISCID=11115212
DTITLE=Various Artist - Troubadours
DYEAR=1998
DGENRE=
TTITLE0=Guy Davis - Georgia Jelly Roll
TTITLE1=Greg Brown - Mose Allison Played Here
TTITLE2=Lucy Kaplansky - (What's so funny 'Bout) Peace, Love and Understanding
TTITLE3=Adrian Legg - Ragged Nail
TTITLE4=John Gorka - B.B.King was wrong
TTITLE5=Dave Moore - God Moves on the Water
TTITLE6=Kate MacKenzie - What's the matter with the Mill?
TTITLE7=Spider John Koerner - Last Lonesome Blues
TTITLE8=Colorblind James Experience - Jonah and the Whale
TTITLE9=Claudia Schmidt - Black Crow
TTITLE10=Cliff Eberhardt - Joey's Arms
TTITLE11=Martin Simpson - Darling Corey
TTITLE12=Paul Geremia - Diggin' Uncle Sam's Backyard
TTITLE13=Suzzy Roche - My Broken Heart
TTITLE14=Peter Ostroushko - Miracle
TTITLE15=Spider John Koerner - Thief River
TTITLE16=Ramblin' Jack Elliot - The Buffalo Skinners (On the trail of the Buff
TTITLE16=alo)
TTITLE17=Guy Davis - If you love somebody
EXTD=1998\n\n\n
EXTT0=
EXTT1=
EXTT2=
EXTT3=
EXTT4=
EXTT5=
EXTT6=
EXTT7=
EXTT8=
EXTT9=
EXTT10=
EXTT11=
EXTT12=
EXTT13=
EXTT14=
EXTT15=
EXTT16=
EXTT17=
PLAYORDER=
